<svg width="500" height="500" xmlns="http://www.w3.org/2000/svg">
	<path fill="#2196f3" d="M421.814,428.004l-13.815-20.191c-2.007-2.943-4.351-5.729-6.781-8.269L287.211,280.458 c0.32-7.12-4.143-15.338-9.077-20.833l-10.166-12.652c25.937-3.578,68.757-13.916,101.166-29.371 c57.032-27.349,61.817-75.891,32.32-79.931c-28.755-3.941-69.291,61.308-136.308,98.052c22.762-21.465,54.623-57.484,74.436-92.023 c37.211-64.66,9.467-114.988-21.789-99.177c-30.167,15.255-26.62,103.508-65.646,183.044c-3.572-3.393-8.174-5.15-12.979-5.254 c1.586-4.275,0.699-9.268-2.703-12.822c-4.779-4.994-12.652-5.082-17.561-0.383c-0.424,0.406-0.682,0.814-1.02,1.139 c-2.721-0.641-5.722,0.124-7.838,2.148c-2.115,2.025-3.009,4.99-2.488,7.736c-0.338,0.324-0.759,0.563-1.097,0.887 c-4.993,4.781-5.083,12.652-0.383,17.562c3.403,3.555,8.353,4.657,12.776,3.179c-0.09,4.143,1.145,8.313,3.639,11.766 C142.54,286.92,57.326,280.257,41.115,309.24c-17.157,30.537,32,60.365,98.133,26.088c35.456-18.371,73.085-49.043,95.518-70.682 l1.871,1.615c-40.01,60.039-100.952,95.674-98.489,123.322c2.671,29.563,51.375,26.894,81.263-28.811 c13.651-25.558,24.14-58.146,30.239-83.289l4.557,3.912c4.854,5.407,13.033,10.394,20.238,10.633l115.228,120.189 c2.511,2.623,5.276,5.004,8.211,7.224l18.431,13.827C419.818,435.915,424.304,431.621,421.814,428.004z" />
	<path stroke-width="0.1626" fill="#BBDEFB" d="M 249.709 231.269 C 249.709 231.269 251.287 236.612 248.257 239.723 C 245.229 242.834 245.555 246.271 246.784 247.909 C 248.012 249.546 247.93 250.774 246.948 251.675 C 245.966 252.575 245.146 253.23 244.573 251.757 C 244 250.282 243.345 250.282 243.099 249.546 C 242.855 248.809 242.364 247.5 242.364 247.5 C 242.364 247.5 240.808 249.955 239.826 251.429 C 238.843 252.901 238.843 255.194 239.498 256.422 C 240.153 257.65 239.908 259.124 239.416 261.171 C 238.925 263.216 239.58 266.327 241.872 267.555 C 244.165 268.783 246.948 269.766 248.175 270.911 C 249.402 272.058 252.268 273.122 255.952 272.303 C 259.636 271.484 264.303 267.719 265.121 265.182 C 265.121 265.182 267.248 262.807 266.839 259.697 C 266.43 256.586 264.957 256.668 264.303 254.293 C 263.646 251.92 265.719 252.505 263.975 248.43 C 263.975 248.43 263.197 246.49 260.243 245.092 C 258.344 244.194 259.636 240.132 256.279 236.039 C 252.923 231.945 249.709 231.269 249.709 231.269 Z" />
</svg>